<?xml version="1.0" standalone="no"?><!DOCTYPE svg PUBLIC "-//W3C//DTD SVG 1.1//EN" "http://www.w3.org/Graphics/SVG/1.1/DTD/svg11.dtd"><svg class="icon" width="200px" height="200.00px" viewBox="0 0 1024 1024" version="1.1" xmlns="http://www.w3.org/2000/svg"><path d="M945.454845 89.00396c-14.851551-15.221493-57.110609-31.807603-131.16747-32.711632-26.432429-0.323392-55.826839 1.420967-87.25715 5.561369l240.476552 244.575306c16.850704-109.661874 2.778235-191.982391-22.051932-217.425043zM78.552505 934.99604c14.851551 15.221493 57.113059 31.807603 131.172369 32.711632 26.432429 0.323392 55.824389-1.420967 87.254701-5.558919l-240.486352-244.585106c-16.848254 109.666774-2.773335 191.989741 22.059282 217.432393zM668.300204 72.011159c-124.33948 26.496128-268.998782 88.714866-386.870414 203.742115-136.775388 133.475315-191.970141 292.628477-213.532085 383.521342l287.811891 292.716675c124.32968-26.493678 268.974283-88.705067 386.836114-203.724965 136.790087-133.487565 191.989741-292.655427 213.554135-383.550742L668.300204 72.011159z m43.089588 377.23969a24.433276 24.433276 0 0 1-17.350492 7.112183 24.421026 24.421026 0 0 1-17.296594-7.23958l-33.054624-33.302068-93.6662 92.963067 33.054624 33.304517c9.532726 9.603774 9.473927 25.11681-0.129847 34.647087a24.421026 24.421026 0 0 1-17.350493 7.109733 24.421026 24.421026 0 0 1-17.296594-7.23958l-33.054623-33.304518-100.408442 99.656309 33.054624 33.304518c9.532726 9.603774 9.473927 25.11681-0.129847 34.647086a24.421026 24.421026 0 0 1-17.350493 7.109733 24.425926 24.425926 0 0 1-17.296594-7.23958l-50.302218-50.681959-0.01225-0.01225-0.01225-0.01225-50.302218-50.679509c-9.530276-9.603774-9.471478-25.11681 0.129847-34.649537 9.603774-9.532726 25.11681-9.473927 34.647086 0.129847l33.054624 33.304518 100.408442-99.656309-33.054624-33.302068c-9.532726-9.603774-9.473927-25.11681 0.129847-34.647086 9.603774-9.532726 25.11681-9.473927 34.649536 0.129847l33.054624 33.304517 93.6662-92.963066-33.054624-33.304518c-9.532726-9.603774-9.473927-25.11681 0.129847-34.647086 9.606224-9.530276 25.11436-9.473927 34.647086 0.129847l100.626487 101.385968c9.530276 9.598875 9.473927 25.11191-0.129847 34.642187z" fill="#E85512" /><path d="M64.869576 672.501855a732.420098 732.420098 0 0 0-8.378803 45.064242l240.486352 244.585106a756.730877 756.730877 0 0 0 58.732471-10.157462L67.897705 659.274616c-1.082875 4.566693-2.1094 9.015788-3.028129 13.227239zM959.125524 351.500595a732.684692 732.684692 0 0 0 8.381253-45.071592l-240.476552-244.575306a755.256012 755.256012 0 0 0-58.727571 10.157462l287.799641 292.704425c1.080425-4.561793 2.104501-9.008438 3.023229-13.214989z" fill="#FFFFFF" /><path d="M1022.542284 176.861346c-3.108977-39.235828-12.923446-92.264833-42.018963-122.080633-28.95587-29.668803-87.781438-46.534207-165.63816-47.484784-149.674335-1.827657-388.159084 58.200833-567.676167 233.388868-152.795561 149.113298-209.817972 328.000746-230.208843 421.360704-14.503659 66.40569-19.876383 130.407987-15.542435 185.093153 3.111427 39.235828 12.928346 92.264833 42.023863 122.080633 28.95342 29.668803 87.778988 46.531757 165.643059 47.484784h0.01225c149.666985 1.827657 388.132134-58.200833 567.632069-233.369269 152.802911-149.118198 209.832672-328.010546 230.228442-421.377853 14.503659-66.40324 19.881283-130.410437 15.544885-185.095603zM355.709596 951.991291a756.730877 756.730877 0 0 1-58.732471 10.157462c-31.427862 4.140403-60.822272 5.882312-87.254701 5.558919-74.061761-0.906479-116.320818-17.492589-131.172369-32.711632-24.830167-25.442652-38.907536-107.765619-22.059282-217.432393a730.580191 730.580191 0 0 1 8.378803-45.064242c0.918728-4.209001 1.945254-8.660547 3.028129-13.224789 21.561944-90.892865 76.756697-250.046027 213.532085-383.521342 117.871632-115.027248 262.530934-177.248437 386.870414-203.742115a755.655352 755.655352 0 0 1 58.727571-10.157462c31.427862-4.140403 60.824721-5.884762 87.25715-5.561369 74.056861 0.904029 116.315918 17.490139 131.16747 32.711632 24.830167 25.440203 38.902636 107.763169 22.051932 217.425043a732.684692 732.684692 0 0 1-8.381253 45.071592 763.789161 763.789161 0 0 1-3.025679 13.214989c-21.564394 90.895315-76.764047 250.060727-213.554135 383.550742-117.859382 115.019899-262.503985 177.231287-386.833664 203.724965z"  /><path d="M610.890702 313.217794c-9.535176-9.603774-25.043312-9.660123-34.647086-0.129847-9.603774 9.532726-9.662573 25.043312-0.129847 34.647086l33.054624 33.304518-93.6662 92.963066-33.054624-33.304517c-9.532726-9.603774-25.045762-9.662573-34.649536-0.129847-9.603774 9.530276-9.662573 25.043312-0.129847 34.647086l33.054624 33.302068-100.408442 99.656309-33.054624-33.304518c-9.530276-9.603774-25.043312-9.662573-34.647086-0.129847-9.601325 9.532726-9.660123 25.043312-0.129847 34.649537l50.302219 50.679509 0.012249 0.01225 0.01225 0.01225 50.302219 50.68196a24.413677 24.413677 0 0 0 17.296593 7.239579 24.430826 24.430826 0 0 0 17.350493-7.109733c9.603774-9.530276 9.662573-25.043312 0.129847-34.647086l-33.054624-33.304518 100.408442-99.656309 33.054624 33.304518a24.428376 24.428376 0 0 0 17.296593 7.23958 24.430826 24.430826 0 0 0 17.350493-7.109733c9.603774-9.530276 9.662573-25.043312 0.129847-34.647087l-33.054624-33.304517 93.6662-92.963067 33.054624 33.302068a24.418576 24.418576 0 0 0 17.296594 7.23958 24.408777 24.408777 0 0 0 17.350492-7.112183c9.603774-9.530276 9.662573-25.043312 0.129847-34.647086l-100.626487-101.381069z"  /></svg>